<svg xmlns="http://www.w3.org/2000/svg" width="48" height="48" viewBox="0 0 48 48">
    <g data-name="Group 69257">
        <g data-name="Group 19994">
            <path data-name="Subtraction 5" d="M33.744 42.706c-2.36 0-5.328-1.436-8.358-4.044a32.6 32.6 0 0 1-1.3-1.184c-.35.338-.687.648-1 .923-3.116 2.724-6.332 4.286-8.823 4.286a4.525 4.525 0 0 1-2.29-.563 5.7 5.7 0 0 1-2.449-4.019A18.474 18.474 0 0 1 9.7 31.2c.108-.57.235-1.147.376-1.714a28.325 28.325 0 0 1-1.3-.405A19.153 19.153 0 0 1 2.4 25.634 5.993 5.993 0 0 1 0 21.313a5.7 5.7 0 0 1 2.258-4.13 18.478 18.478 0 0 1 6.07-3.3 31.363 31.363 0 0 1 1.776-.559 31.497 31.497 0 0 1-.354-1.59A19.162 19.162 0 0 1 9.511 4.7 5.7 5.7 0 0 1 11.938.607a4.443 4.443 0 0 1 2.256-.56 9.687 9.687 0 0 1 4.244 1.178 22.569 22.569 0 0 1 4.788 3.342c.265.236.533.483.8.734.392-.377.794-.746 1.2-1.1C28.333 1.493 31.367 0 33.761 0a4.329 4.329 0 0 1 2.192.543 5.94 5.94 0 0 1 2.521 4.315 20.136 20.136 0 0 1-.314 7.444 29.33 29.33 0 0 1-.239 1.053c.522.15 1.042.314 1.545.487a19.162 19.162 0 0 1 6.211 3.321A5.707 5.707 0 0 1 48 21.313a5.939 5.939 0 0 1-2.478 4.339 20.14 20.14 0 0 1-6.605 3.448c-.276.092-.576.185-.892.279.111.446.208.878.287 1.283a19.149 19.149 0 0 1 .211 7.242 5.992 5.992 0 0 1-2.535 4.245 4.417 4.417 0 0 1-2.244.557zm2.3-12.809a47.929 47.929 0 0 1-6.5 1 48.161 48.161 0 0 1-4.023 5.109c.4.388.81.759 1.207 1.1 2.585 2.224 5.2 3.552 7.008 3.552a2.427 2.427 0 0 0 1.228-.287 4.246 4.246 0 0 0 1.572-2.979 17.338 17.338 0 0 0-.231-6.335 25.956 25.956 0 0 0-.26-1.161zm-23.977.092a30.662 30.662 0 0 0-.351 1.594c-.822 4.326-.305 7.849 1.285 8.766a2.524 2.524 0 0 0 1.268.288 6.421 6.421 0 0 0 2.1-.415 17.333 17.333 0 0 0 5.373-3.364c.321-.281.628-.565.915-.842a49.919 49.919 0 0 1-4.12-5.091 48.315 48.315 0 0 1-6.474-.936zm9.128 1.095a45.95 45.95 0 0 0 2.888 3.456 43.706 43.706 0 0 0 2.817-3.466c-.973.043-1.948.065-2.9.065s-1.881-.018-2.808-.055zM17.3 17.493a58.681 58.681 0 0 0-2.042 3.869c.629 1.307 1.318 2.608 2.048 3.867s1.522 2.517 2.346 3.722c1.406.091 2.868.137 4.346.137s2.965-.052 4.4-.154c.8-1.2 1.577-2.455 2.3-3.715s1.421-2.566 2.063-3.885c-.647-1.3-1.343-2.6-2.069-3.852s-1.506-2.5-2.313-3.693a58.09 58.09 0 0 0-8.749-.001c-.818 1.2-1.6 2.445-2.327 3.706zm-3.129 6.28a46.166 46.166 0 0 0-1.556 4.237 43.7 43.7 0 0 0 4.424.711 59.478 59.478 0 0 1-2.866-4.948zm19.696-.073A66.617 66.617 0 0 1 31 28.685a43.5 43.5 0 0 0 4.477-.763 43.41 43.41 0 0 0-1.61-4.222zm-23.212-8.4a29.61 29.61 0 0 0-1.652.52c-4.159 1.45-6.953 3.657-6.953 5.493a4.25 4.25 0 0 0 1.792 2.853 17.341 17.341 0 0 0 5.6 2.974c.388.132.787.257 1.185.371a49.939 49.939 0 0 1 2.369-6.148 49.14 49.14 0 0 1-2.341-6.063zm26.717.03a48.025 48.025 0 0 1-2.336 5.993 48.069 48.069 0 0 1 2.43 6.077c.292-.087.556-.169.806-.252 4.52-1.5 7.677-3.9 7.677-5.839 0-.862-.678-1.873-1.91-2.846a18.086 18.086 0 0 0-5.239-2.682 29.573 29.573 0 0 0-1.427-.45zm-6.365-1.277a68.633 68.633 0 0 1 2.841 4.9 43.886 43.886 0 0 0 1.536-4.133 43.825 43.825 0 0 0-4.377-.766zM17 14.05a46.09 46.09 0 0 0-4.352.747 44.945 44.945 0 0 0 1.525 4.153A59.84 59.84 0 0 1 17 14.05zm16.751-12c-1.833 0-4.519 1.385-7.185 3.706-.369.322-.741.663-1.1 1.012a48.02 48.02 0 0 1 4.058 5.064 48.963 48.963 0 0 1 6.418 1.014c.075-.307.148-.628.216-.954.961-4.664.458-8.6-1.222-9.568a2.341 2.341 0 0 0-1.188-.278zm-19.54.046a2.459 2.459 0 0 0-1.243.29c-.746.431-1.28 1.525-1.506 3.078a18.089 18.089 0 0 0 .3 5.882c.1.493.207.991.33 1.479a50.066 50.066 0 0 1 6.4-1 49.124 49.124 0 0 1 4.089-5.06c-.238-.228-.48-.452-.72-.665-2.823-2.51-5.685-4.009-7.652-4.008zm9.8 9.481c.944 0 1.9.023 2.843.067a43.929 43.929 0 0 0-2.825-3.41 45.582 45.582 0 0 0-2.849 3.409c.943-.048 1.896-.07 2.825-.07z" transform="translate(0 3)" style="fill:#53c1de"/>
            <path data-name="Path 111218" d="M112.33 94.665a4.286 4.286 0 1 1-4.286 4.286 4.286 4.286 0 0 1 4.286-4.286" transform="translate(-88.33 -74.638)" style="fill:#53c1de"/>
        </g>
        <path data-name="Rectangle 7792" style="fill:none" d="M0 0h48v48H0z"/>
    </g>
</svg>
