<svg xmlns="http://www.w3.org/2000/svg" width="48" height="48" viewBox="0 0 48 48">
    <g data-name="Group 69262">
        <path data-name="Rectangle 1696" transform="translate(2 2)" style="fill:none" d="M0 0h44v44H0z"/>
        <g data-name="Group 5307">
            <path data-name="Path 5985" d="M15.521 0h7.2v33.021a47.65 47.65 0 0 1-9.35.972C4.58 33.983 0 30.052 0 22.5c0-7.274 4.859-12 12.387-12a11.722 11.722 0 0 1 3.134.367zm.253 16.826a7.253 7.253 0 0 0-2.437-.367c-3.644 0-5.749 2.222-5.749 6.117 0 3.792 2.012 5.886 5.7 5.886a17 17 0 0 0 2.475-.183V16.826z" style="fill:#2ba977" transform="translate(6.125 2)"/>
            <path data-name="Path 5986" d="M164.046 11.393v16.533c0 5.694-.426 8.432-1.679 10.792A11.48 11.48 0 0 1 156.481 44l-6.681-3.15c3.18-1.478 4.719-2.784 5.7-4.777 1.028-2.038 1.353-4.4 1.353-10.608v-14.07h7.2zM156.125 0h7.205v7.32h-7.205z" transform="translate(-123.413 2)" style="fill:#2ba977"/>
        </g>
        <path data-name="Rectangle 7797" style="fill:none" d="M0 0h48v48H0z"/>
    </g>
</svg>
