<svg xmlns="http://www.w3.org/2000/svg" width="48" height="48" viewBox="0 0 48 48">
    <g data-name="Group 69268">
        <path d="M130.541 96.543c0-.021-.018-.04-.024-.059a.828.828 0 0 0-.045-.11.6.6 0 0 0-.048-.064.8.8 0 0 0-.064-.082.727.727 0 0 0-.069-.054.552.552 0 0 0-.078-.059l-8.514-4.9a.708.708 0 0 0-.708 0l-8.514 4.9a.706.706 0 0 0-.078.059.723.723 0 0 0-.069.054.8.8 0 0 0-.064.082.6.6 0 0 0-.048.064.659.659 0 0 0-.045.11.387.387 0 0 0-.024.059.708.708 0 0 0-.024.185v9.312l-7.1 4.086V91.907a.708.708 0 0 0-.024-.185c0-.021-.018-.04-.024-.059a.834.834 0 0 0-.045-.11.594.594 0 0 0-.048-.064.794.794 0 0 0-.064-.082.723.723 0 0 0-.069-.054.554.554 0 0 0-.078-.059l-8.514-4.9a.708.708 0 0 0-.708 0l-8.521 4.9a.708.708 0 0 0-.078.059.723.723 0 0 0-.069.054.8.8 0 0 0-.064.082.6.6 0 0 0-.048.064.658.658 0 0 0-.045.11.389.389 0 0 0-.024.059.708.708 0 0 0-.024.185v29.159a.708.708 0 0 0 .355.616l17.031 9.8a.808.808 0 0 0 .117.048l.055.023a.691.691 0 0 0 .364 0c.016 0 .031-.014.047-.02a.815.815 0 0 0 .123-.051l17.038-9.8a.708.708 0 0 0 .355-.616v-9.312l8.159-4.7a.708.708 0 0 0 .355-.616v-9.72a1.7 1.7 0 0 0-.033-.184zM104.3 120.258l-7.077-4.009 7.438-4.282 8.16-4.7 7.09 4.086-5.2 2.973zm16.323-18.216v8.085l-2.981-1.716-4.118-2.37v-8.085l2.981 1.716zm.708-9.4 7.093 4.085-7.093 4.085-7.093-4.085zm-21.842 20.67-2.981 1.716V97.221l4.113-2.37 2.981-1.716v17.805zm-3.695-25.487 7.092 4.085-7.092 4.084-7.094-4.085zm-7.806 5.309 2.98 1.717 4.118 2.37v19.032a.625.625 0 0 0 .011.079.76.76 0 0 0 .014.1.69.69 0 0 0 .034.079.85.85 0 0 0 .037.089.706.706 0 0 0 .054.068.661.661 0 0 0 .058.075.755.755 0 0 0 .068.052.869.869 0 0 0 .076.058l8.156 4.616v8.164l-15.617-8.987zm32.644 27.528-15.613 8.988v-8.166l11.562-6.6 4.05-2.311zm8.514-14.623-7.1 4.086v-8.085l4.118-2.37 2.981-1.716v8.085z" transform="translate(-84.581 -84.295)" style="fill:#ff2d20"/>
        <path data-name="Rectangle 7803" style="fill:none" d="M0 0h48v48H0z"/>
    </g>
</svg>
