<svg xmlns="http://www.w3.org/2000/svg" width="48" height="48" viewBox="0 0 48 48">
    <g data-name="Group 69261">
        <g data-name="Layer 2">
            <g data-name="Layer 1">
                <path data-name="Path 115435" d="M29.823 56.04v-21.5a.414.414 0 0 0 .044-.086 2.4 2.4 0 0 1 1.227-1.515q9.067-5.07 18.127-10.149a2.793 2.793 0 0 1 .75-.3c.033 0 .1.015.077-.065h.866s0 .018.024.021.021 0 0-.021h.172l-.021.024s.024.03.036.033a3.371 3.371 0 0 1 .984.409q2 1.121 4 2.236 6.97 3.9 13.965 7.795a2.461 2.461 0 0 1 .777.652.388.388 0 0 1-.163.122q-3.015 1.726-6.034 3.442a6.9 6.9 0 0 1-.836.454c-.027-.036-.056-.071-.08-.11a15.376 15.376 0 0 0-11.972-7.341 14.626 14.626 0 0 0-4.035.234 15.346 15.346 0 0 0-12.364 16.462 14.824 14.824 0 0 0 1.033 4.311c.228.569.5 1.115.777 1.66l-.593.347-6.265 3.576c-.068.039-.136.095-.222.042 0-.024 0-.039-.027-.042a.071.071 0 0 0-.039-.074 1.838 1.838 0 0 1-.139-.368c0-.033 0-.083-.068-.042V56.1c.049-.016.017-.036-.001-.06z" transform="translate(-26.626 -21.43)" style="fill:#953dac"/>
                <path data-name="Path 115436" d="M112.185 64.047a6.9 6.9 0 0 0 .836-.454q3.021-1.717 6.034-3.442a.388.388 0 0 0 .163-.122 1.933 1.933 0 0 1 .513.964c0 .036 0 .089.068.068v21.6c-.077 0-.062.068-.074.11a2.2 2.2 0 0 1-.246.593.329.329 0 0 1-.166-.05l-1.121-.617-2.992-1.646c-.646-.356-1.29-.718-1.942-1.067a9.607 9.607 0 0 0-.946-.5c-.03-.056-.092-.071-.139-.1q-3.131-1.726-6.268-3.445a1.3 1.3 0 0 0-.32-.16.978.978 0 0 0-.116-.077l-1.456-.8-2.947-1.631c-.744-.409-1.482-.812-2.23-1.227-.095-.053-.225-.074-.27-.2.056-.039.113-.077.172-.113l4.557-2.6q1.109-.632 2.215-1.254c.047-.021.1-.039.142-.062l6.41-3.647c.049-.038.117-.046.123-.121z" transform="translate(-74.993 -47.882)" style="fill:#822c98"/>
                <path data-name="Path 115437" d="M64.6 125.1a9.607 9.607 0 0 1 .946.5c.652.35 1.3.712 1.942 1.067l2.989 1.648 1.121.617a.329.329 0 0 0 .166.05 2.25 2.25 0 0 1-.916.889l-1.6.889-8.048 4.54-8.15 4.56a4.338 4.338 0 0 1-1.251.593.048.048 0 0 0-.047.059h-.967c0-.077-.071-.059-.116-.074a2.769 2.769 0 0 1-.623-.252l-4.883-2.754-12.884-7.232a4.911 4.911 0 0 1-1.053-.661 1.58 1.58 0 0 1-.486-.682c.086.053.154 0 .222-.042l6.265-3.576c.2-.113.4-.231.593-.347l.11.175a15.331 15.331 0 0 0 24.217 3.233 15.553 15.553 0 0 0 2.453-3.2z" transform="translate(-27.273 -93.512)" style="fill:#68217a"/>
                <path data-name="Path 115438" d="M3.197 34.61c.018.024.059.044 0 .068z"/>
                <path data-name="Path 115439" d="M24.349 1.009v.021s0-.015-.024-.021z"/>
                <path data-name="Path 115440" d="M76.952 71.214a15.554 15.554 0 0 1-2.443 3.2 15.334 15.334 0 0 1-24.22-3.238L50.18 71c-.273-.546-.549-1.091-.777-1.66a14.824 14.824 0 0 1-1.035-4.311 15.346 15.346 0 0 1 12.364-16.458 14.626 14.626 0 0 1 4.035-.234 15.376 15.376 0 0 1 11.972 7.341c.024.039.053.074.08.11s-.074.083-.119.113l-6.4 3.659c-.044.024-.095.042-.142.062a.041.041 0 0 0 0-.018 7.667 7.667 0 0 0-14.045 5.518 6.588 6.588 0 0 0 .75 2.075.37.37 0 0 0 .03.08 7.545 7.545 0 0 0 6.38 3.994 7.629 7.629 0 0 0 6.95-3.757 1.3 1.3 0 0 1 .32.16q3.137 1.723 6.268 3.445c.05.024.112.039.141.095z" transform="translate(-39.63 -39.623)" style="fill:#fefefe"/>
                <path data-name="Path 115441" d="M30.567 137.944c-.036 0-.042-.042-.039-.074a.071.071 0 0 1 .039.074z" transform="translate(-27.124 -102.644)" style="fill:#004481"/>
                <path data-name="Path 115442" d="M30.684 138.161a.033.033 0 0 1-.027-.042c.021.004.029.019.027.042z" transform="translate(-27.214 -102.819)" style="fill:#004481"/>
                <path data-name="Path 115443" d="M75.056 85.393a6.588 6.588 0 0 1-.75-2.075A7.663 7.663 0 0 1 88.344 77.8a.042.042 0 0 1 0 .018q-1.106.623-2.215 1.254l-4.551 2.6a3.399 3.399 0 0 0-.172.113c-.193.107-.385.208-.575.317z" transform="translate(-57.82 -57.822)" style="fill:#953dac"/>
                <path data-name="Path 115444" d="m77.18 103.523 5.776-3.276c.19-.11.382-.211.575-.317.044.125.175.145.27.2.738.415 1.482.818 2.23 1.227l2.938 1.622 1.456.8a.978.978 0 0 1 .116.077 7.629 7.629 0 0 1-6.95 3.742 7.53 7.53 0 0 1-6.38-3.994.371.371 0 0 1-.031-.081z" transform="translate(-59.944 -75.952)" style="fill:#68217a"/>
                <path data-name="Path 115445" d="M139.87 86.384h-1.02c-.044 0-.068.018-.068.053l-.261 1.809c0 .033 0 .05.039.05h.827a.116.116 0 0 1 .13.13v.827a.116.116 0 0 1-.13.13h-1c-.044 0-.065.018-.065.053L138 91.513a.116.116 0 0 1-.13.119h-1a.127.127 0 0 1-.092-.042.107.107 0 0 1-.027-.1l.314-2.031c0-.036 0-.053-.039-.053h-1.82c-.044 0-.065.018-.065.053l-.329 2.075a.116.116 0 0 1-.13.119h-1a.127.127 0 0 1-.092-.042.107.107 0 0 1-.027-.1l.314-2.031c0-.036 0-.053-.039-.053h-.824a.116.116 0 0 1-.13-.13v-.827a.116.116 0 0 1 .13-.13h.97c.044 0 .065-.018.065-.05l.276-1.809c0-.036 0-.053-.039-.053h-.777a.116.116 0 0 1-.13-.13v-.875a.116.116 0 0 1 .13-.13h.969c.044 0 .065-.018.065-.053l.329-2.075a.119.119 0 0 1 .13-.119h1a.128.128 0 0 1 .092.042.1.1 0 0 1 .027.1l-.314 2.031c0 .036 0 .053.039.053h1.817c.044 0 .065-.018.065-.053l.329-2.075a.119.119 0 0 1 .13-.119h1a.127.127 0 0 1 .092.042.1.1 0 0 1 .027.1l-.314 2.031c0 .036 0 .053.039.053h.851a.116.116 0 0 1 .133.13l-.015.839a.116.116 0 0 1-.127.166zm-2.609 1.862.276-1.809c0-.036 0-.053-.039-.053h-1.82c-.044 0-.068.018-.068.053l-.261 1.809c0 .033.015.05.039.05h1.812c.04.004.061-.018.061-.05z" transform="translate(-99.134 -64.054)" style="fill:#fefefe"/>
            </g>
        </g>
        <path data-name="Rectangle 7796" style="fill:none" d="M0 0h48v48H0z"/>
    </g>
</svg>
