<svg xmlns="http://www.w3.org/2000/svg" width="48" height="48" viewBox="0 0 48 48">
    <g data-name="Group 69264">
        <path data-name="Rectangle 1677" style="fill:none" d="M0 0h44v44H0z" transform="translate(2 2)"/>
        <g data-name="Group 5291">
            <path data-name="Path 5946" d="M18.767 1.054a3.689 3.689 0 0 1 3.6 0l16.458 9.292a3.387 3.387 0 0 1 1.71 2.916v18.644a3.424 3.424 0 0 1-1.848 2.981q-8.2 4.623-16.394 9.248a3.585 3.585 0 0 1-3.642-.1q-2.458-1.425-4.918-2.845a2.9 2.9 0 0 1-.949-.687c.209-.275.583-.316.887-.44a11.481 11.481 0 0 0 1.94-.906.452.452 0 0 1 .5.03c1.4.8 2.79 1.631 4.2 2.425.3.173.6-.056.859-.2q8.045-4.547 16.1-9.083a.532.532 0 0 0 .293-.524V13.353a.576.576 0 0 0-.344-.575q-8.17-4.6-16.336-9.213a.568.568 0 0 0-.642 0Q12.07 8.168 3.9 12.779a.569.569 0 0 0-.345.572V31.8a.521.521 0 0 0 .3.517q2.179 1.238 4.363 2.464a3.371 3.371 0 0 0 2.728.366 2.062 2.062 0 0 0 1.346-1.935q.011-9.173 0-18.343a.461.461 0 0 1 .5-.47c.7 0 1.4-.01 2.1 0a.484.484 0 0 1 .456.56v18.46a4.675 4.675 0 0 1-2.189 4.227 6.737 6.737 0 0 1-6.024-.165c-1.6-.8-3.123-1.739-4.693-2.593A3.415 3.415 0 0 1 .6 31.906V13.264a3.394 3.394 0 0 1 1.774-2.953q8.198-4.627 16.393-9.257z" transform="translate(3.596 1.417)" style="fill:#8cc84b"/>
            <path data-name="Path 5947" d="M111.384 85.675a12.933 12.933 0 0 1 7.08 1.084 5.354 5.354 0 0 1 2.613 4.634.5.5 0 0 1-.55.368c-.687 0-1.383.01-2.075 0a.535.535 0 0 1-.5-.518 3.163 3.163 0 0 0-1.512-2.182 8.957 8.957 0 0 0-4.146-.593 5.627 5.627 0 0 0-2.967.738 1.88 1.88 0 0 0-.626 2.1c.223.528.825.7 1.33.855 2.872.751 5.912.676 8.734 1.665a4.111 4.111 0 0 1 2.707 2.408 5.144 5.144 0 0 1-.872 4.907 6.875 6.875 0 0 1-3.692 1.99 17.738 17.738 0 0 1-5.573.236 8.782 8.782 0 0 1-4.9-1.844 5.144 5.144 0 0 1-1.65-4.058.465.465 0 0 1 .509-.413h2.089a.488.488 0 0 1 .5.483 3.163 3.163 0 0 0 1.178 2.222 8.938 8.938 0 0 0 4.813.876 6.535 6.535 0 0 0 3.945-.963 2.179 2.179 0 0 0 .593-2.082c-.169-.615-.813-.9-1.365-1.089-2.835-.9-5.913-.572-8.722-1.585a4.245 4.245 0 0 1-2.68-2.337 4.785 4.785 0 0 1 .955-4.977 7.713 7.713 0 0 1 4.788-1.925z" transform="translate(-84.255 -70.292)" style="fill:#8cc84b"/>
        </g>
        <path data-name="Rectangle 7799" style="fill:none" d="M0 0h48v48H0z"/>
    </g>
</svg>
