<svg xmlns="http://www.w3.org/2000/svg" width="48" height="48" viewBox="0 0 48 48">
    <g data-name="Group 69266">
        <path data-name="Rectangle 1676" style="fill:none" d="M0 0h44v44H0z" transform="translate(2 2)"/>
        <g data-name="Group 5290">
            <path data-name="Path 5930" d="M67.539 267.1s-1.672.972 1.189 1.3a25.063 25.063 0 0 0 9.058-.384 15.814 15.814 0 0 0 2.406 1.176c-8.563 3.67-19.387-.213-12.65-2.093" transform="translate(-49.553 -231.271)" style="fill:#5382a1"/>
            <path data-name="Path 5931" d="M57.542 229.29s-1.874 1.389.987 1.684a35.338 35.338 0 0 0 11.688-.561 5.205 5.205 0 0 0 1.8 1.1c-10.354 3.025-21.886.236-14.475-2.222" transform="translate(-40.602 -198.25)" style="fill:#5382a1"/>
            <path data-name="Path 5932" d="M130.074 82.521c2.111 2.43-.55 4.616-.55 4.616s5.362-2.767 2.9-6.229c-2.3-3.23-4.06-4.834 5.481-10.368 0 0-14.974 3.74-7.822 11.982" transform="translate(-104.316 -59.606)" style="fill:#e76f00"/>
            <path data-name="Path 5933" d="M29.5 292.516s1.237 1.019-1.363 1.807c-4.95 1.5-20.571 1.95-24.914.059-1.561-.679 1.367-1.621 2.288-1.819a5.977 5.977 0 0 1 1.513-.169c-1.735-1.222-11.219 2.4-4.813 3.437 17.463 2.832 31.824-1.275 27.3-3.316" transform="translate(7.591 -253.145)" style="fill:#5382a1"/>
            <path data-name="Path 5934" d="M35.408 190.059s-7.95 1.888-2.816 2.574a59.78 59.78 0 0 0 10.516-.113c3.29-.275 6.6-.868 6.6-.868a13.909 13.909 0 0 0-2 1.07c-8.073 2.123-23.669 1.136-19.179-1.037a15.033 15.033 0 0 1 6.885-1.628" transform="translate(-16.619 -163.98)" style="fill:#5382a1"/>
            <path data-name="Path 5935" d="M199.864 195.167c8.207-4.262 4.412-8.363 1.764-7.81a6.187 6.187 0 0 0-.938.252 1.493 1.493 0 0 1 .7-.54c5.24-1.841 9.27 5.434-1.691 8.315a.75.75 0 0 0 .164-.216" transform="translate(-166.812 -161.117)" style="fill:#5382a1"/>
            <path data-name="Path 5936" d="M92.19 0s4.546 4.547-4.309 11.538c-7.1 5.609-1.62 8.8 0 12.46-4.146-3.74-7.187-7.033-5.147-10.1C85.727 9.4 94.025 7.221 92.19 0" transform="translate(-64.088 2)" style="fill:#e76f00"/>
            <path data-name="Path 5937" d="M52.105 316.657c7.877.5 19.975-.275 20.261-4.007 0 0-.55 1.414-6.509 2.535a64.78 64.78 0 0 1-19.938.307s1.006.833 6.188 1.165" transform="translate(-32.509 -271.053)" style="fill:#5382a1"/>
        </g>
        <path data-name="Rectangle 7801" style="fill:none" d="M0 0h48v48H0z"/>
    </g>
</svg>
