<svg xmlns="http://www.w3.org/2000/svg" width="48" height="48" viewBox="0 0 48 48">
    <defs>
        <clipPath id="1vf7klom8a">
            <path transform="translate(-19094 -8759)" style="fill:none" d="M0 0h44v44H0z"/>
        </clipPath>
    </defs>
    <g data-name="Group 69273">
        <g data-name="Javascript" transform="translate(19096 8761)" style="clip-path:url(#1vf7klom8a)">
            <path data-name="Rectangle 1699" style="fill:#f7df1e" d="M0 0h44v44H0z" transform="translate(-19094 -8759)"/>
            <path data-name="Path 6053" d="M-19064.439-8724.625a4.5 4.5 0 0 0 4.078 2.511c1.713 0 2.808-.857 2.808-2.039 0-1.418-1.125-1.925-3.01-2.75l-1.034-.444c-2.984-1.271-4.965-2.864-4.965-6.23 0-3.1 2.362-5.462 6.05-5.462a6.112 6.112 0 0 1 5.881 3.311l-3.22 2.063a2.812 2.812 0 0 0-2.661-1.772 1.8 1.8 0 0 0-1.979 1.772c0 1.238.769 1.742 2.542 2.511l1.034.443c3.513 1.513 5.5 3.043 5.5 6.5 0 3.722-2.925 5.761-6.852 5.761a7.943 7.943 0 0 1-7.535-4.228zm-14.6.359c.649 1.152 1.237 2.127 2.661 2.127 1.358 0 2.215-.532 2.215-2.6v-14.058h4.135v14.115c0 4.282-2.511 6.23-6.174 6.23a6.418 6.418 0 0 1-6.2-3.777z"/>
        </g>
        <path data-name="Rectangle 7808" style="fill:none" d="M0 0h48v48H0z"/>
    </g>
</svg>
