<svg xmlns="http://www.w3.org/2000/svg" width="61.575" height="108" viewBox="0 0 61.575 108">
  <g id="mobile" transform="translate(-130 -35)">
    <path id="Path_19211" data-name="Path 19211" d="M141.24,143h39.1a11.253,11.253,0,0,0,11.24-11.24V46.24A11.253,11.253,0,0,0,180.335,35h-39.1A11.253,11.253,0,0,0,130,46.24v85.52A11.252,11.252,0,0,0,141.24,143Zm0-105.068h39.1a8.317,8.317,0,0,1,8.308,8.308v3.421h-3.421a1.466,1.466,0,1,0,0,2.932h3.421v69.882h-55.71V52.593H172.76a1.466,1.466,0,1,0,0-2.932H132.932V46.24a8.317,8.317,0,0,1,8.308-8.308Zm-8.308,87.475h55.71v6.353a8.317,8.317,0,0,1-8.308,8.308h-39.1a8.317,8.317,0,0,1-8.308-8.308Z" transform="translate(0)" fill="#666"/>
    <path id="Path_19212" data-name="Path 19212" d="M320.166,97.932h2.715a1.466,1.466,0,1,0,0-2.932h-2.715a1.466,1.466,0,1,0,0,2.932Z" transform="translate(-142.592 -45.339)" fill="#fe6666"/>
    <path id="Path_19213" data-name="Path 19213" d="M240.131,424.262A5.131,5.131,0,1,0,235,419.131a5.131,5.131,0,0,0,5.131,5.131Zm0-7.33a2.2,2.2,0,1,1-2.2,2.2A2.2,2.2,0,0,1,240.131,416.932Z" transform="translate(-79.344 -286.394)" fill="#fe6666"/>
    <g id="XMLID_228_" transform="translate(118.125 69)">
      <path id="XMLID_229_" d="M29.423,77.11c-3.1,5.386-1.131,13.558,2.3,18.514,1.713,2.478,3.447,4.7,5.823,4.7l.136,0a7.191,7.191,0,0,0,2.7-.72,7.4,7.4,0,0,1,3.2-.759,6.96,6.96,0,0,1,3.047.734,6.456,6.456,0,0,0,2.919.7c2.676-.05,4.319-2.45,5.768-4.567a20.242,20.242,0,0,0,2.527-5.177l.01-.033a.3.3,0,0,0-.16-.369l-.022-.009A7.67,7.67,0,0,1,53.03,83.1a7.9,7.9,0,0,1,3.731-6.6l.029-.018a.3.3,0,0,0,.085-.423,8.683,8.683,0,0,0-6.829-3.709c-.194-.019-.395-.029-.6-.029a11.9,11.9,0,0,0-4.286,1.07A6.89,6.89,0,0,1,43.111,74a6.717,6.717,0,0,1-2.124-.621,10.291,10.291,0,0,0-3.743-.951h-.095A9.179,9.179,0,0,0,29.423,77.11Z" transform="translate(0 -63.449)" fill="none" stroke="#707070" stroke-width="2"/>
      <path id="XMLID_230_" d="M156.78,0a8.382,8.382,0,0,0-5.533,2.838,7.853,7.853,0,0,0-1.988,5.823.3.3,0,0,0,.275.26c.128.01.259.015.389.015a7.09,7.09,0,0,0,5.223-2.679,8.279,8.279,0,0,0,1.946-5.99A.3.3,0,0,0,156.78,0Z" transform="translate(-105.481 -4)" fill="none" stroke="#707070" stroke-width="2"/>
    </g>
  </g>
</svg>
